<svg width="23" height="21" viewBox="0 0 23 21" fill="none" xmlns="http://www.w3.org/2000/svg">
<path d="M20.3862 2.81573C19.8674 2.28018 19.2515 1.85535 18.5735 1.5655C17.8956 1.27565 17.169 1.12646 16.4352 1.12646C15.7014 1.12646 14.9747 1.27565 14.2968 1.5655C13.6189 1.85535 13.003 2.28018 12.4842 2.81573L11.4076 3.92665L10.331 2.81573C9.28311 1.73447 7.86191 1.12703 6.38 1.12703C4.8981 1.12703 3.47689 1.73447 2.42903 2.81573C1.38116 3.89698 0.79248 5.36348 0.79248 6.89261C0.79248 8.42174 1.38116 9.88824 2.42903 10.9695L3.50564 12.0804L11.4076 20.2342L19.3095 12.0804L20.3862 10.9695C20.9052 10.4342 21.3169 9.79864 21.5978 9.09911C21.8787 8.39958 22.0232 7.64981 22.0232 6.89261C22.0232 6.13541 21.8787 5.38563 21.5978 4.68611C21.3169 3.98658 20.9052 3.35102 20.3862 2.81573V2.81573Z" stroke="#056162" stroke-linecap="round" stroke-linejoin="round"/>
</svg>
