<svg width="21" height="21" viewBox="0 0 21 21" fill="none" xmlns="http://www.w3.org/2000/svg">
<path d="M20.3924 10.1498C20.396 11.5508 20.0687 12.933 19.437 14.1836C18.688 15.6822 17.5366 16.9427 16.1117 17.8239C14.6868 18.7051 13.0447 19.1722 11.3693 19.1728C9.96819 19.1765 8.58605 18.8491 7.33544 18.2174L1.28467 20.2344L3.30159 14.1836C2.6699 12.933 2.34255 11.5508 2.34621 10.1498C2.34685 8.47439 2.81393 6.83229 3.69512 5.40739C4.57632 3.98248 5.83682 2.83105 7.33544 2.08206C8.58605 1.45037 9.96819 1.12303 11.3693 1.12668H11.9001C14.1127 1.24875 16.2025 2.18266 17.7695 3.74959C19.3364 5.31652 20.2703 7.40637 20.3924 9.61899V10.1498Z" stroke="#999999" stroke-linecap="round" stroke-linejoin="round"/>
</svg>
