<svg width="21" height="23" viewBox="0 0 21 23" fill="none" xmlns="http://www.w3.org/2000/svg">
<path d="M6.51847 13.2836L13.7688 17.5085M13.7582 5.85279L6.51847 10.0777M19.6922 4.24986C19.6922 6.00868 18.2664 7.43448 16.5076 7.43448C14.7487 7.43448 13.3229 6.00868 13.3229 4.24986C13.3229 2.49105 14.7487 1.06525 16.5076 1.06525C18.2664 1.06525 19.6922 2.49105 19.6922 4.24986ZM6.9537 11.6806C6.9537 13.4394 5.5279 14.8652 3.76909 14.8652C2.01027 14.8652 0.584473 13.4394 0.584473 11.6806C0.584473 9.92182 2.01027 8.49602 3.76909 8.49602C5.5279 8.49602 6.9537 9.92182 6.9537 11.6806ZM19.6922 19.1114C19.6922 20.8702 18.2664 22.296 16.5076 22.296C14.7487 22.296 13.3229 20.8702 13.3229 19.1114C13.3229 17.3526 14.7487 15.9268 16.5076 15.9268C18.2664 15.9268 19.6922 17.3526 19.6922 19.1114Z" stroke="#999999" stroke-linecap="round" stroke-linejoin="round"/>
</svg>
